Coordinates
version=1
nRows=16
nColumns=40
inDegrees=yes

Units are S.I. units (second, meters, Newtons, ...)
Angles are in degrees.

endheader
time	pelvis_tilt	pelvis_list	pelvis_rotation	pelvis_tx	pelvis_ty	pelvis_tz	hip_flexion_r	hip_adduction_r	hip_rotation_r	knee_angle_r	knee_angle_r_beta	ankle_angle_r	subtalar_angle_r	mtp_angle_r	hip_flexion_l	hip_adduction_l	hip_rotation_l	knee_angle_l	knee_angle_l_beta	ankle_angle_l	subtalar_angle_l	mtp_angle_l	lumbar_extension	lumbar_bending	lumbar_rotation	arm_flex_r	arm_add_r	arm_rot_r	elbow_flex_r	pro_sup_r	wrist_flex_r	wrist_dev_r	arm_flex_l	arm_add_l	arm_rot_l	elbow_flex_l	pro_sup_l	wrist_flex_l	wrist_dev_l
      0.31000000	    -10.77632674	      2.88295221	      1.19396996	     -1.05293348	      0.94472602	      0.00596506	     12.20286962	     -8.84998042	    -14.79931700	    -62.84352343	     -1.09682640	      5.58398391	    -18.34003365	     18.30797710	     29.26893103	     -6.22493755	      6.52875287	    -26.39206765	     -0.46062848	      2.22616350	      3.84152229	     14.53733575	     -7.60069532	     -9.23288451	     -1.05410499	    -11.89474285	    -20.22128887	      8.65466214	     97.88421331	     89.95437384	      0.00000000	      0.00000000	     -5.12558632	     23.18769980	    -11.93569360	     96.67560336	     89.95437384	      0.00000000	      0.00000000
      0.32000000	    -10.47316174	      3.30985982	      2.17162860	     -1.01622946	      0.93895191	      0.00500320	     15.63159706	    -10.22740125	    -14.29849854	    -66.23200123	     -1.15596649	      7.10357466	    -18.42733665	     18.07160629	     26.46296902	     -7.41533514	      6.28032182	    -25.93951643	     -0.45272997	      5.15101402	      6.83024103	     12.64031833	     -8.26001932	     -9.99087217	     -3.04438007	    -13.80701085	    -20.25246932	      8.37117979	     94.24022947	     89.95437384	      0.00000000	      0.00000000	     -1.59772280	     20.26524092	    -13.81987358	    100.57424806	     89.95437384	      0.00000000	      0.00000000
      0.33000000	    -10.60074698	      3.15782319	      3.63205367	     -0.98080634	      0.93214956	      0.00382379	     19.61256626	    -11.04988805	    -14.15328954	    -69.16358488	     -1.20713228	      8.60185491	    -18.48188934	     19.45901131	     24.42670382	     -8.09287868	      5.06970420	    -26.57024325	     -0.46373823	      3.74384975	      8.27041238	    -12.99706196	     -8.57958294	    -10.01075389	     -5.67498050	    -15.60901138	    -20.83235693	      8.50278509	     91.30861217	     89.95437384	      0.00000000	      0.00000000	      2.22399072	     17.57658800	    -15.75460568	    104.63418352	     89.95437384	      0.00000000	      0.00000000
      0.34000000	    -10.54080755	      3.04721119	      5.13797631	     -0.94593872	      0.92665136	      0.00246758	     23.38071590	    -11.95822873	    -13.85603804	    -71.27640753	     -1.24400799	      9.55942740	    -18.45729835	     18.92004928	     22.84848659	     -8.59296361	      3.20336402	    -28.70975278	     -0.50107971	      7.14555027	      7.79729178	    -13.89978702	     -9.19664927	     -9.91556807	     -8.47662182	    -17.51928099	    -21.69190197	      8.53368167	     89.56828331	     89.95437384	      0.00000000	      0.00000000	      6.63275559	     15.07564599	    -17.94975341	    108.34247295	     89.95437384	      0.00000000	      0.00000000
      0.35000000	    -11.77486362	      2.21332120	      6.31929446	     -0.91260161	      0.91965538	      0.00151309	     28.91434546	    -12.07632461	    -13.25245076	    -72.87692005	     -1.27194220	     10.49483475	    -18.19450887	     18.28044537	     23.28757903	     -8.42671611	      1.01573771	    -31.84718474	     -0.55583823	     10.07555871	      8.77777726	    -14.66263976	     -8.05392274	     -8.97566499	    -10.74273760	    -20.13732675	    -22.86358128	      7.94077988	     89.29369187	     89.95437384	      0.00000000	      0.00000000	     11.32262172	     12.49011592	    -20.12656841	    111.28561476	     89.95437384	      0.00000000	      0.00000000
      0.36000000	    -12.29513433	      1.82188972	      7.36229195	     -0.87841440	      0.91595377	     -0.00032501	     33.27926716	    -12.73096425	    -12.58665835	    -73.22088822	     -1.27794558	     11.10778714	    -17.84997736	     17.80471516	     21.97591034	     -8.44972022	     -0.58670076	    -33.23650520	     -0.58008645	     12.21934442	      8.52493848	    -15.09765931	     -7.70669861	     -8.23895323	    -12.91446829	    -23.18309483	    -24.11805623	      6.84138303	     90.20422453	     89.95437384	      0.00000000	      0.00000000	     16.41960898	     10.21272499	    -22.35685738	    113.78046052	     89.95437384	      0.00000000	      0.00000000
      0.37000000	    -14.41381872	      1.38036497	      7.84128891	     -0.84449397	      0.91139814	     -0.00083477	     39.49548481	    -12.87386565	    -10.95355921	    -72.71024070	     -1.26903310	     11.02539923	    -17.27962226	     17.31844577	     21.71924578	     -8.27485801	     -1.78152589	    -33.00009727	     -0.57596035	     13.19330908	      8.58193972	    -15.42925086	     -5.40413802	     -7.80030249	    -14.37144803	    -26.86450468	    -25.32844938	      5.51200724	     91.73793226	     89.95437384	      0.00000000	      0.00000000	     21.23729910	      8.14044559	    -24.36588292	    115.98240073	     89.95437384	      0.00000000	      0.00000000
      0.38000000	    -16.53283755	      0.31028078	      8.20486944	     -0.80812903	      0.90836604	     -0.00068080	     44.88716422	    -12.19019972	     -9.82362257	    -70.72771888	     -1.23443157	     10.38551179	    -17.09306790	     17.13486363	     20.87496065	     -7.27683427	     -2.97218120	    -31.73233720	     -0.55383376	     13.71714062	      8.61853279	    -15.80638560	     -2.70604714	     -6.79907469	    -15.66526449	    -30.79062197	    -26.40967187	      3.96417869	     93.31502752	     89.95437384	      0.00000000	      0.00000000	     25.54287915	      6.30237241	    -26.14782893	    118.08241743	     89.95437384	      0.00000000	      0.00000000
      0.39000000	    -18.05377609	     -1.15428199	      8.27358502	     -0.77003606	      0.90698238	      0.00035016	     48.94169913	    -10.78481551	     -8.98386858	    -67.57517760	     -1.17940934	      9.17517002	    -17.06409913	     16.81887389	     19.24470415	     -5.39368237	     -3.66917764	    -29.98687995	     -0.52336979	     12.79703686	      8.53692065	    -19.51561753	     -0.38455502	     -5.25255782	    -16.90140693	    -34.49019218	    -27.76121827	      2.65172171	     95.14932685	     89.95437384	      0.00000000	      0.00000000	     29.56939952	      5.06334277	    -27.52622316	    120.26097783	     89.95437384	      0.00000000	      0.00000000
      0.40000000	    -18.52040342	     -2.76310483	      8.38444064	     -0.73021718	      0.90854088	      0.00191836	     51.04953647	     -9.18588379	     -8.82387477	    -63.22740095	     -1.10352632	      8.03024484	    -17.03851629	     17.03456159	     16.42321205	     -2.86315237	     -3.85115769	    -28.16423207	     -0.49155858	     11.65862958	      6.76313677	    -19.43350201	      0.88067826	     -3.36716128	    -18.30930919	    -37.84117713	    -29.00715173	      1.29132999	     96.92962075	     89.95437384	      0.00000000	      0.00000000	     33.44237178	      4.62818849	    -28.62094942	    122.44450033	     89.95437384	      0.00000000	      0.00000000
      0.41000000	    -17.98335380	     -3.47138788	      8.32427160	     -0.68826240	      0.91326010	      0.00367302	     51.46833633	     -8.16949151	     -8.40328053	    -58.15899204	     -1.01506590	      6.60672434	    -16.51407136	     17.21775189	     11.90832055	     -0.92488922	     -3.22829747	    -25.17571124	     -0.43939905	      8.89757143	      5.44856444	    -18.75631617	      1.00996662	     -2.33188626	    -19.42607905	    -40.83888655	    -29.68248198	     -0.21413883	     98.35522358	     89.95437384	      0.00000000	      0.00000000	     36.94505874	      5.05216168	    -29.64116046	    124.58304513	     89.95437384	      0.00000000	      0.00000000
      0.42000000	    -17.20766945	     -3.96819468	      8.28945951	     -0.64574396	      0.91937251	      0.00552135	     51.11402875	     -7.27818100	     -8.04599784	    -52.31061583	     -0.91299248	      4.73648929	    -15.54070224	     17.36802639	      7.35544465	      0.93403525	     -1.93728725	    -22.26633792	     -0.38862091	      4.72846534	      3.22813830	    -17.77359946	      0.82804822	     -1.47110538	    -20.59770782	    -43.44357252	    -30.18203039	     -1.61973214	     99.60205929	     89.95437384	      0.00000000	      0.00000000	     40.03070183	      6.41416478	    -30.65089955	    126.84549692	     89.95437384	      0.00000000	      0.00000000
      0.43000000	    -16.58919511	     -4.81448752	      8.20053341	     -0.60343455	      0.92534492	      0.00742622	     50.46802003	     -6.09219678	     -8.03173844	    -45.68011516	     -0.79726841	      1.97281490	    -14.08881280	     17.24422399	      3.56033875	      3.25643429	      0.52584078	    -20.06032393	     -0.35011870	     -0.69859607	     -0.25105773	    -16.51170335	      0.89896689	     -0.23456119	    -21.50485048	    -46.01261051	    -30.39875063	     -3.35619016	    100.71763883	     89.95437384	      0.00000000	      0.00000000	     42.77025599	      8.25123112	    -31.91479889	    128.80787035	     89.95437384	      0.00000000	      0.00000000
      0.44000000	    -16.15140812	     -5.02202969	      8.22086125	     -0.56132938	      0.93120784	      0.00823284	     49.73213633	     -5.72182963	     -8.01455735	    -38.91556098	     -0.67920467	     -0.81986646	    -11.79029685	     17.48762064	      0.15461020	      4.47328854	      2.68855898	    -18.01879993	     -0.31448739	     -6.94705928	     -1.20189794	    -14.59987102	      1.03934467	      0.37275529	    -22.55869741	    -48.26089000	    -30.46728848	     -5.06945668	    101.61987898	     89.95437384	      0.00000000	      0.00000000	     44.95505326	     10.73890386	    -33.25047857	    130.98378015	     89.95437384	      0.00000000	      0.00000000
      0.45000000	    -15.38792396	     -5.09772701	      8.13830390	     -0.51817856	      0.93738508	      0.00919061	     48.24200458	     -5.30833097	     -8.24199541	    -32.09914249	     -0.56023572	     -2.13202991	     -8.87389141	     17.57620546	     -3.28206772	      5.58731431	      6.00085046	    -16.15425992	     -0.28194502	    -14.47707697	     -2.27285094	    -11.72864184	      0.85163875	      0.86437636	    -23.48654977	    -50.10097675	    -30.42909865	     -6.59443335	    102.17298012	     89.95437384	      0.00000000	      0.00000000	     46.49886815	     13.66070010	    -34.72718268	    133.21560171	     89.95437384	      0.00000000	      0.00000000
      0.46000000	    -14.46321387	     -4.91519478	      7.95646493	     -0.47404409	      0.94345809	      0.01038603	     46.34412907	     -5.06178637	     -8.72047315	    -25.74101075	     -0.44926539	     -2.09733122	     -4.52080236	     14.55945090	     -6.56680854	      6.36926099	      9.82268903	    -14.62034446	     -0.25517315	    -18.84138378	     -3.79463724	     14.51658852	      0.57857628	      1.02597220	    -24.31509390	    -51.52954434	    -30.35572840	     -7.80462561	    102.42575449	     89.95437384	      0.00000000	      0.00000000	     47.20505787	     16.96770638	    -36.32900226	    135.06458378	     89.95437384	      0.00000000	      0.00000000
